<?xml version="1.0" encoding="UTF-8"?>
<svg id="Layer_1" xmlns="http://www.w3.org/2000/svg" version="1.1" viewBox="0 0 1000 293.46">
  <!-- Generator: Adobe Illustrator 29.5.1, SVG Export Plug-In . SVG Version: 2.1.0 Build 141)  -->
  <defs>
    <style>
      .st0, .st1, .st2 {
        fill: #fff;
      }

      .st3 {
        fill: #182815;
      }

      .st1 {
        stroke-width: .62px;
      }

      .st1, .st2 {
        stroke: #000;
        stroke-miterlimit: 10;
      }

      .st2 {
        stroke-width: .07px;
      }
    </style>
  </defs>
  <g>
    <path class="st0" d="M607.41,298.38v3.77c-.76-1.49-1.75-2.61-2.99-3.36-1.24-.75-2.69-1.13-4.37-1.13-2.86,0-5.15.97-6.85,2.92-1.71,1.95-2.56,4.57-2.56,7.87s.88,5.87,2.64,7.85c1.76,1.98,4.08,2.97,6.96,2.97,1.54,0,2.94-.38,4.19-1.15,1.25-.77,2.27-1.88,3.08-3.34v3.63h3.33v-20.04h-3.42ZM605.76,313.94c-1.16,1.28-2.76,1.92-4.81,1.92s-3.78-.65-4.94-1.97c-1.16-1.31-1.74-3.18-1.74-5.6,0-2.28.58-4.05,1.73-5.32,1.15-1.27,2.76-1.91,4.82-1.91s3.6.69,4.83,2.07c1.24,1.38,1.85,3.2,1.85,5.47s-.58,4.08-1.74,5.35Z"/>
    <path class="st0" d="M625.72,297.8c-.38-.06-.77-.1-1.18-.1-1.49,0-2.75.37-3.79,1.12-1.04.74-2.02,1.99-2.93,3.72v-4.16h-3.04v20.04h3.39v-9.77c0-2.63.45-4.6,1.36-5.9.9-1.31,2.26-1.96,4.07-1.96.32,0,.65.03,1.01.1.35.06.72.16,1.12.29l1.14-3.09c-.38-.13-.76-.23-1.14-.3Z"/>
    <path class="st0" d="M648.32,298.38v20.04h-3.33v-3.64c-.8,1.46-1.83,2.57-3.08,3.34s-2.65,1.15-4.19,1.15c-2.88,0-5.19-.99-6.95-2.97s-2.64-4.6-2.64-7.85.85-5.92,2.56-7.87,3.99-2.92,6.85-2.92c1.68,0,3.14.38,4.37,1.13s2.23,1.87,2.99,3.36v-3.77h3.42ZM644.99,308.58c0-2.26-.62-4.08-1.85-5.46s-2.84-2.07-4.83-2.07-3.66.64-4.82,1.91-1.73,3.04-1.73,5.32c0,2.42.58,4.29,1.74,5.61s2.81,1.97,4.94,1.97,3.65-.64,4.81-1.92c1.16-1.28,1.74-3.06,1.74-5.35Z"/>
    <path class="st0" d="M652.52,318.42v-34.03h3.35v17.04c.86-1.29,1.9-2.25,3.11-2.88s2.61-.94,4.2-.94c2.37,0,4.21.63,5.54,1.89s1.99,3.01,1.99,5.25v13.68h-3.5v-11.84c0-2.03-.43-3.55-1.28-4.53s-2.17-1.48-3.95-1.48c-1.02,0-1.95.19-2.79.56s-1.54.9-2.09,1.59c-.42.53-.73,1.13-.91,1.8s-.27,1.84-.27,3.51v10.39h-3.39Z"/>
    <path class="st3" d="M586.05,318.74c-.38.36-.86.56-1.39.56s-1.01-.2-1.39-.56c-.36-.38-.56-.87-.56-1.39s.19-.99.54-1.36h0s0,0,0,0c.02-.01.03-.02.04-.04h0c.37-.35.86-.56,1.36-.56.53,0,1.01.21,1.39.58.77.76.77,2.01,0,2.78Z"/>
    <path class="st2" d="M583.3,315.94s-.02.03-.04.04c0,0,0-.01.02-.02,0,0,.01-.01.02-.02Z"/>
    <path class="st0" d="M586.64,301.84c0,3.29-.91,6.36-2.49,8.98-.61-1.26-1.79-2.19-3.2-2.46,1.07-1.93,1.69-4.16,1.69-6.53,0-7.43-6.03-13.46-13.46-13.46s-13.46,6.03-13.46,13.46,6.03,13.46,13.46,13.46c2.37,0,4.59-.61,6.52-1.68.27,1.41,1.2,2.59,2.45,3.2-2.62,1.57-5.69,2.48-8.97,2.48-9.64,0-17.46-7.81-17.46-17.46s7.81-17.46,17.46-17.46,17.46,7.81,17.46,17.46Z"/>
    <path class="st2" d="M583.27,315.96s-.01.01-.02.02c.02-.01.03-.02.04-.04,0,0-.02.01-.02.02Z"/>
    <path class="st3" d="M583.65,312.78c0,1.95-1.58,3.53-3.53,3.53-.34,0-.66-.05-.96-.14-1.39-.39-2.43-1.61-2.56-3.09,0-.1-.01-.2-.01-.31,0-1.95,1.58-3.54,3.53-3.54.1,0,.21,0,.31.02,1.48.13,2.7,1.17,3.09,2.56.09.31.13.63.13.96Z"/>
  </g>
  <g>
    <path class="st0" d="M467.97,117.62v31.65c-6.4-12.49-14.74-21.93-25.12-28.24-10.38-6.31-22.6-9.49-36.72-9.49-24.04,0-43.25,8.18-57.59,24.58-14.36,16.37-21.55,38.43-21.55,66.16s7.4,49.35,22.17,65.99c14.8,16.61,34.28,24.93,58.46,24.93,12.98,0,24.74-3.23,35.23-9.68,10.49-6.45,19.11-15.8,25.86-28.05v30.54h27.97V117.62h-28.7ZM454.06,248.39c-9.76,10.73-23.23,16.1-40.38,16.1s-31.76-5.5-41.52-16.56c-9.76-11.03-14.64-26.75-14.64-47.1,0-19.16,4.85-34.07,14.55-44.72,9.7-10.68,23.2-16.02,40.49-16.02s30.22,5.8,40.57,17.37c10.38,11.6,15.56,26.91,15.56,45.94s-4.88,34.26-14.64,44.99Z"/>
    <path class="st0" d="M621.83,112.74c-3.17-.54-6.5-.81-9.92-.81-12.52,0-23.14,3.12-31.84,9.38-8.73,6.26-16.94,16.69-24.66,31.3v-34.99h-25.58v168.41h28.51v-82.09c0-22.09,3.82-38.62,11.44-49.6,7.59-10.98,19-16.48,34.23-16.48,2.68,0,5.5.27,8.46.84,2.95.54,6.07,1.38,9.38,2.47l9.57-25.94c-3.17-1.11-6.37-1.92-9.57-2.49Z"/>
    <path class="st0" d="M811.72,117.63v168.4h-27.97v-30.55c-6.75,12.27-15.37,21.63-25.86,28.07-10.49,6.44-22.24,9.66-35.24,9.66-24.17,0-43.65-8.31-58.43-24.94-14.78-16.63-22.18-38.62-22.18-65.98s7.18-49.78,21.53-66.16c14.36-16.38,33.56-24.57,57.61-24.57,14.11,0,26.35,3.16,36.72,9.48,10.37,6.32,18.74,15.74,25.12,28.25v-31.66h28.71ZM783.75,203.39c0-19.02-5.18-34.32-15.55-45.92-10.37-11.59-23.89-17.39-40.58-17.39s-30.8,5.34-40.49,16.01c-9.69,10.67-14.54,25.58-14.54,44.72,0,20.37,4.88,36.07,14.63,47.11,9.75,11.04,23.59,16.56,41.5,16.56s30.64-5.37,40.4-16.1c9.75-10.74,14.63-25.74,14.63-45Z"/>
    <path class="st0" d="M847.06,286.03V0h28.16v143.2c7.24-10.83,15.95-18.88,26.13-24.17,10.18-5.29,21.96-7.93,35.34-7.93,19.88,0,35.4,5.29,46.56,15.87,11.17,10.58,16.75,25.28,16.75,44.1v114.96h-29.45v-99.46c0-17.1-3.59-29.8-10.77-38.11-7.18-8.3-18.25-12.46-33.22-12.46-8.59,0-16.41,1.57-23.47,4.71-7.05,3.14-12.91,7.6-17.58,13.38-3.56,4.43-6.1,9.47-7.64,15.13-1.53,5.66-2.3,15.5-2.3,29.53v87.28h-28.53Z"/>
    <path class="st3" d="M288.45,288.71c-3.17,3.06-7.21,4.74-11.68,4.74s-8.51-1.68-11.68-4.74c-3.06-3.17-4.74-7.32-4.74-11.68s1.6-8.32,4.53-11.44l.03-.03s.03-.03.05-.05c.14-.11.24-.19.33-.33l.03-.03c3.14-2.95,7.21-4.66,11.46-4.66,4.47,0,8.51,1.79,11.68,4.85,6.45,6.42,6.45,16.91,0,23.36Z"/>
    <path class="st1" d="M265.27,265.19c-.08.14-.19.22-.33.33.03-.05.08-.11.14-.16.05-.05.11-.11.19-.16Z"/>
    <path class="st0" d="M293.4,146.76c0,27.62-7.64,53.44-20.9,75.51-5.12-10.57-15.01-18.37-26.86-20.65,9.02-16.23,14.17-34.96,14.17-54.85,0-62.47-50.65-113.12-113.12-113.12s-113.12,50.65-113.12,113.12,50.65,113.12,113.12,113.12c19.89,0,38.57-5.12,54.8-14.15,2.25,11.87,10.05,21.76,20.6,26.89-22.03,13.23-47.83,20.84-75.4,20.84C65.67,293.46,0,227.79,0,146.76S65.67.05,146.7.05s146.7,65.67,146.7,146.7Z"/>
    <path class="st1" d="M265.08,265.35c-.05.05-.11.11-.14.16.14-.11.24-.19.33-.33-.08.05-.14.11-.19.16Z"/>
    <path class="st3" d="M268.23,238.66c0,16.4-13.28,29.7-29.7,29.7-2.82,0-5.53-.38-8.1-1.14-11.65-3.28-20.41-13.55-21.49-25.99-.08-.84-.11-1.71-.11-2.57,0-16.42,13.31-29.73,29.7-29.73.87,0,1.76.03,2.6.14,12.47,1.06,22.71,9.81,25.99,21.52.73,2.57,1.11,5.28,1.11,8.08Z"/>
  </g>
</svg>