<?xml version="1.0" encoding="UTF-8"?>
<svg id="Logo_Artwork" data-name="Logo Artwork" xmlns="http://www.w3.org/2000/svg" viewBox="0 0 284.4 83.46">
  <defs>
    <style>
      .cls-1 {
        fill: #1a2918;
      }

      .cls-2 {
        fill: #99ca3c;
      }
    </style>
  </defs>
  <g>
    <path class="cls-1" d="m133.09,33.45v9c-1.82-3.55-4.19-6.24-7.15-8.03-2.95-1.8-6.43-2.7-10.44-2.7-6.84,0-12.3,2.33-16.38,6.99-4.09,4.66-6.13,10.93-6.13,18.81s2.1,14.04,6.31,18.77c4.21,4.72,9.75,7.09,16.63,7.09,3.69,0,7.04-.92,10.02-2.75,2.98-1.83,5.43-4.49,7.35-7.98v8.69h7.95v-47.9h-8.16Zm-3.95,37.19c-2.77,3.05-6.61,4.58-11.48,4.58s-9.03-1.56-11.81-4.71c-2.77-3.14-4.16-7.61-4.16-13.4,0-5.45,1.38-9.69,4.14-12.72,2.76-3.04,6.6-4.56,11.52-4.56s8.59,1.65,11.54,4.94c2.95,3.3,4.42,7.65,4.42,13.06s-1.39,9.74-4.16,12.8Z"/>
    <path class="cls-1" d="m176.85,32.06c-.9-.15-1.85-.23-2.82-.23-3.56,0-6.58.89-9.06,2.67-2.48,1.78-4.82,4.75-7.01,8.9v-9.95h-7.28v47.9h8.11v-23.35c0-6.28,1.09-10.98,3.25-14.11,2.16-3.12,5.4-4.69,9.74-4.69.76,0,1.56.08,2.4.24.84.15,1.73.39,2.67.7l2.72-7.38c-.9-.32-1.81-.55-2.72-.71Z"/>
    <path class="cls-1" d="m230.86,33.45v47.89h-7.96v-8.69c-1.92,3.49-4.37,6.15-7.35,7.98s-6.32,2.75-10.02,2.75c-6.87,0-12.41-2.36-16.62-7.09-4.2-4.73-6.31-10.98-6.31-18.76s2.04-14.16,6.12-18.82c4.08-4.66,9.54-6.99,16.38-6.99,4.01,0,7.49.9,10.44,2.7,2.95,1.8,5.33,4.48,7.14,8.03v-9h8.17Zm-7.96,24.39c0-5.41-1.47-9.76-4.42-13.06-2.95-3.3-6.8-4.95-11.54-4.95s-8.76,1.52-11.52,4.55c-2.76,3.04-4.14,7.28-4.14,12.72,0,5.79,1.39,10.26,4.16,13.4,2.77,3.14,6.71,4.71,11.8,4.71s8.72-1.53,11.49-4.58c2.77-3.05,4.16-7.32,4.16-12.8Z"/>
    <path class="cls-1" d="m240.91,81.35V0h8.01v40.73c2.06-3.08,4.54-5.37,7.43-6.88,2.9-1.5,6.25-2.26,10.05-2.26,5.65,0,10.07,1.5,13.24,4.51,3.18,3.01,4.76,7.19,4.76,12.54v32.7h-8.37v-28.29c0-4.86-1.02-8.48-3.06-10.84-2.04-2.36-5.19-3.54-9.45-3.54-2.44,0-4.67.45-6.67,1.34-2.01.89-3.67,2.16-5,3.8-1.01,1.26-1.74,2.69-2.17,4.3-.44,1.61-.65,4.41-.65,8.4v24.82h-8.11Z"/>
    <path class="cls-1" d="m83.45,41.74c0,7.85-2.17,15.2-5.94,21.47-1.46-3.01-4.27-5.23-7.64-5.87,2.57-4.62,4.03-9.94,4.03-15.6,0-17.77-14.41-32.17-32.17-32.17S9.55,23.97,9.55,41.74s14.41,32.17,32.17,32.17c5.66,0,10.97-1.46,15.59-4.02.64,3.38,2.86,6.19,5.86,7.65-6.27,3.76-13.6,5.93-21.44,5.93C18.68,83.46,0,64.78,0,41.74S18.68.02,41.72.02s41.72,18.68,41.72,41.72Z"/>
    <path class="cls-2" d="m76.28,67.88c0,4.66-3.78,8.45-8.45,8.45-.8,0-1.57-.11-2.3-.32-3.31-.93-5.8-3.85-6.11-7.39-.02-.24-.03-.49-.03-.73,0-4.67,3.78-8.46,8.45-8.46.25,0,.5,0,.74.04,3.55.3,6.46,2.79,7.39,6.12.21.73.32,1.5.32,2.3Z"/>
  </g>
  <g>
    <path class="cls-1" d="m133.09,33.45v9c-1.82-3.55-4.19-6.24-7.15-8.03-2.95-1.8-6.43-2.7-10.44-2.7-6.84,0-12.3,2.33-16.38,6.99-4.09,4.66-6.13,10.93-6.13,18.81s2.1,14.04,6.31,18.77c4.21,4.72,9.75,7.09,16.63,7.09,3.69,0,7.04-.92,10.02-2.75,2.98-1.83,5.43-4.49,7.35-7.98v8.69h7.95v-47.9h-8.16Zm-3.95,37.19c-2.77,3.05-6.61,4.58-11.48,4.58s-9.03-1.56-11.81-4.71c-2.77-3.14-4.16-7.61-4.16-13.4,0-5.45,1.38-9.69,4.14-12.72,2.76-3.04,6.6-4.56,11.52-4.56s8.59,1.65,11.54,4.94c2.95,3.3,4.42,7.65,4.42,13.06s-1.39,9.74-4.16,12.8Z"/>
    <path class="cls-1" d="m176.85,32.06c-.9-.15-1.85-.23-2.82-.23-3.56,0-6.58.89-9.06,2.67-2.48,1.78-4.82,4.75-7.01,8.9v-9.95h-7.28v47.9h8.11v-23.35c0-6.28,1.09-10.98,3.25-14.11,2.16-3.12,5.4-4.69,9.74-4.69.76,0,1.56.08,2.4.24.84.15,1.73.39,2.67.7l2.72-7.38c-.9-.32-1.81-.55-2.72-.71Z"/>
    <path class="cls-1" d="m230.86,33.45v47.89h-7.96v-8.69c-1.92,3.49-4.37,6.15-7.35,7.98s-6.32,2.75-10.02,2.75c-6.87,0-12.41-2.36-16.62-7.09-4.2-4.73-6.31-10.98-6.31-18.76s2.04-14.16,6.12-18.82c4.08-4.66,9.54-6.99,16.38-6.99,4.01,0,7.49.9,10.44,2.7,2.95,1.8,5.33,4.48,7.14,8.03v-9h8.17Zm-7.96,24.39c0-5.41-1.47-9.76-4.42-13.06-2.95-3.3-6.8-4.95-11.54-4.95s-8.76,1.52-11.52,4.55c-2.76,3.04-4.14,7.28-4.14,12.72,0,5.79,1.39,10.26,4.16,13.4,2.77,3.14,6.71,4.71,11.8,4.71s8.72-1.53,11.49-4.58c2.77-3.05,4.16-7.32,4.16-12.8Z"/>
    <path class="cls-1" d="m240.91,81.35V0h8.01v40.73c2.06-3.08,4.54-5.37,7.43-6.88,2.9-1.5,6.25-2.26,10.05-2.26,5.65,0,10.07,1.5,13.24,4.51,3.18,3.01,4.76,7.19,4.76,12.54v32.7h-8.37v-28.29c0-4.86-1.02-8.48-3.06-10.84-2.04-2.36-5.19-3.54-9.45-3.54-2.44,0-4.67.45-6.67,1.34-2.01.89-3.67,2.16-5,3.8-1.01,1.26-1.74,2.69-2.17,4.3-.44,1.61-.65,4.41-.65,8.4v24.82h-8.11Z"/>
    <path class="cls-2" d="m82.03,82.11c-.9.87-2.05,1.35-3.32,1.35s-2.42-.48-3.32-1.35c-.87-.9-1.35-2.08-1.35-3.32s.45-2.37,1.28-3.25h0s.01-.02.02-.03c.04-.03.07-.05.09-.09h0c.89-.85,2.05-1.33,3.26-1.33,1.27,0,2.42.51,3.32,1.38,1.84,1.82,1.84,4.81,0,6.64Z"/>
    <path class="cls-1" d="m83.45,41.74c0,7.85-2.17,15.2-5.94,21.47-1.46-3.01-4.27-5.23-7.64-5.87,2.57-4.62,4.03-9.94,4.03-15.6,0-17.77-14.41-32.17-32.17-32.17S9.55,23.97,9.55,41.74s14.41,32.17,32.17,32.17c5.66,0,10.97-1.46,15.59-4.02.64,3.38,2.86,6.19,5.86,7.65-6.27,3.76-13.6,5.93-21.44,5.93C18.68,83.46,0,64.78,0,41.74S18.68.02,41.72.02s41.72,18.68,41.72,41.72Z"/>
    <path class="cls-2" d="m76.28,67.88c0,4.66-3.78,8.45-8.45,8.45-.8,0-1.57-.11-2.3-.32-3.31-.93-5.8-3.85-6.11-7.39-.02-.24-.03-.49-.03-.73,0-4.67,3.78-8.46,8.45-8.46.25,0,.5,0,.74.04,3.55.3,6.46,2.79,7.39,6.12.21.73.32,1.5.32,2.3Z"/>
  </g>
  <path class="cls-1" d="m133.09,33.45v9c-1.82-3.55-4.19-6.24-7.15-8.03-2.95-1.8-6.43-2.7-10.44-2.7-6.84,0-12.3,2.33-16.38,6.99-4.09,4.66-6.13,10.93-6.13,18.81s2.1,14.04,6.31,18.77c4.21,4.72,9.75,7.09,16.63,7.09,3.69,0,7.04-.92,10.02-2.75,2.98-1.83,5.43-4.49,7.35-7.98v8.69h7.95v-47.9h-8.16Zm-3.95,37.19c-2.77,3.05-6.61,4.58-11.48,4.58s-9.03-1.56-11.81-4.71c-2.77-3.14-4.16-7.61-4.16-13.4,0-5.45,1.38-9.69,4.14-12.72,2.76-3.04,6.6-4.56,11.52-4.56s8.59,1.65,11.54,4.94c2.95,3.3,4.42,7.65,4.42,13.06s-1.39,9.74-4.16,12.8Z"/>
  <path class="cls-1" d="m176.85,32.06c-.9-.15-1.85-.23-2.82-.23-3.56,0-6.58.89-9.06,2.67-2.48,1.78-4.82,4.75-7.01,8.9v-9.95h-7.28v47.9h8.11v-23.35c0-6.28,1.09-10.98,3.25-14.11,2.16-3.12,5.4-4.69,9.74-4.69.76,0,1.56.08,2.4.24.84.15,1.73.39,2.67.7l2.72-7.38c-.9-.32-1.81-.55-2.72-.71Z"/>
  <path class="cls-1" d="m230.86,33.45v47.89h-7.96v-8.69c-1.92,3.49-4.37,6.15-7.35,7.98s-6.32,2.75-10.02,2.75c-6.87,0-12.41-2.36-16.62-7.09-4.2-4.73-6.31-10.98-6.31-18.76s2.04-14.16,6.12-18.82c4.08-4.66,9.54-6.99,16.38-6.99,4.01,0,7.49.9,10.44,2.7,2.95,1.8,5.33,4.48,7.14,8.03v-9h8.17Zm-7.96,24.39c0-5.41-1.47-9.76-4.42-13.06-2.95-3.3-6.8-4.95-11.54-4.95s-8.76,1.52-11.52,4.55c-2.76,3.04-4.14,7.28-4.14,12.72,0,5.79,1.39,10.26,4.16,13.4,2.77,3.14,6.71,4.71,11.8,4.71s8.72-1.53,11.49-4.58c2.77-3.05,4.16-7.32,4.16-12.8Z"/>
  <path class="cls-1" d="m240.91,81.35V0h8.01v40.73c2.06-3.08,4.54-5.37,7.43-6.88,2.9-1.5,6.25-2.26,10.05-2.26,5.65,0,10.07,1.5,13.24,4.51,3.18,3.01,4.76,7.19,4.76,12.54v32.7h-8.37v-28.29c0-4.86-1.02-8.48-3.06-10.84-2.04-2.36-5.19-3.54-9.45-3.54-2.44,0-4.67.45-6.67,1.34-2.01.89-3.67,2.16-5,3.8-1.01,1.26-1.74,2.69-2.17,4.3-.44,1.61-.65,4.41-.65,8.4v24.82h-8.11Z"/>
  <path class="cls-2" d="m82.04,82.11c-.9.87-2.05,1.35-3.32,1.35s-2.42-.48-3.32-1.35c-.87-.9-1.35-2.08-1.35-3.32s.45-2.37,1.29-3.25l.12-.12c.89-.84,2.05-1.33,3.26-1.33,1.27,0,2.42.51,3.32,1.38,1.83,1.83,1.83,4.81,0,6.64Z"/>
  <path class="cls-1" d="m83.45,41.74c0,7.85-2.17,15.2-5.94,21.47-1.46-3.01-4.27-5.23-7.64-5.87,2.57-4.62,4.03-9.94,4.03-15.6,0-17.77-14.41-32.17-32.17-32.17S9.55,23.97,9.55,41.74s14.41,32.17,32.17,32.17c5.66,0,10.97-1.46,15.59-4.02.64,3.38,2.86,6.19,5.86,7.65-6.27,3.76-13.6,5.93-21.44,5.93C18.68,83.46,0,64.78,0,41.74S18.68.02,41.72.02s41.72,18.68,41.72,41.72Z"/>
  <path class="cls-2" d="m76.28,67.88c0,4.66-3.78,8.45-8.45,8.45-.8,0-1.57-.11-2.3-.32-3.31-.93-5.8-3.85-6.11-7.39-.02-.24-.03-.49-.03-.73,0-4.67,3.78-8.46,8.45-8.46.25,0,.5,0,.74.04,3.55.3,6.46,2.79,7.39,6.12.21.73.32,1.5.32,2.3Z"/>
</svg>